<?xml version="1.0" standalone="no"?>
<!DOCTYPE svg PUBLIC "-//W3C//DTD SVG 20010904//EN"
 "http://www.w3.org/TR/2001/REC-SVG-20010904/DTD/svg10.dtd">
<svg version="1.0" xmlns="http://www.w3.org/2000/svg"
 width="30" height="30" viewBox="0 0 256.000000 256.000000"
 preserveAspectRatio="xMidYMid meet">

<g transform="translate(0.000000,256.000000) scale(0.100000,-0.100000)"
fill="#053eff" stroke="none">
<path d="M1080 2484 c-14 -2 -56 -9 -95 -15 -100 -16 -233 -62 -335 -115 -290
-149 -461 -441 -486 -829 -7 -98 -7 -101 -41 -128 -65 -55 -77 -94 -81 -263
-5 -178 8 -239 60 -293 54 -56 99 -71 214 -71 l101 0 47 -96 c67 -139 129
-227 232 -329 180 -178 386 -275 584 -275 198 0 404 97 584 275 103 102 165
190 232 329 l47 96 101 0 c115 0 160 15 214 71 52 54 65 115 60 293 -4 169
-16 208 -81 263 -34 27 -34 30 -41 128 -33 509 -302 828 -793 941 -65 15 -461
29 -523 18z m465 -138 c307 -56 517 -203 631 -444 47 -98 83 -243 91 -359 l6
-93 -45 0 -45 0 -13 72 c-35 196 -124 371 -254 499 -158 156 -351 224 -636
224 -285 0 -478 -68 -636 -224 -130 -128 -219 -303 -254 -499 l-13 -72 -45 0
-45 0 6 93 c17 251 122 478 283 611 144 119 309 180 574 210 66 8 315 -4 395
-18z m-490 -691 c97 -96 156 -129 341 -191 77 -25 154 -54 173 -65 18 -11 35
-18 38 -15 5 5 -22 64 -44 95 l-17 23 54 -7 c149 -20 322 -81 406 -143 l41
-30 6 -86 c17 -212 -40 -438 -156 -619 -121 -189 -370 -367 -554 -396 -169
-26 -391 75 -565 257 -80 84 -113 130 -85 119 68 -26 169 -51 255 -62 90 -12
107 -17 138 -44 50 -45 97 -61 173 -61 75 0 137 23 176 66 86 93 -13 224 -171
224 -75 0 -127 -17 -171 -55 -36 -31 -37 -31 -107 -23 -172 21 -310 76 -389
156 -36 37 -49 60 -62 107 -18 71 -35 207 -35 286 l0 56 68 22 c131 43 233
134 297 264 32 66 43 106 61 222 l6 40 21 -30 c12 -16 58 -66 102 -110z"/>
</g>
</svg>
